<?xml version="1.0" encoding="utf-8"?>
<!-- Generator: Adobe Illustrator 25.2.0, SVG Export Plug-In . SVG Version: 6.00 Build 0)  -->
<svg version="1.1" id="Layer_1" xmlns="http://www.w3.org/2000/svg" xmlns:xlink="http://www.w3.org/1999/xlink" x="0px" y="0px"
	 viewBox="0 0 186 35" style="enable-background:new 0 0 186 35;" xml:space="preserve">
<style type="text/css">
	.st0{fill-rule:evenodd;clip-rule:evenodd;fill:#384BFF;}
</style>
<path class="st0" d="M95.3,15.4v17.3c0,1.3-1.1,2.3-2.3,2.3c-1.3,0-2.3-1.1-2.3-2.3V15.4c0-1.3,1.1-2.3,2.3-2.3
	C94.3,13,95.3,14.1,95.3,15.4z M105.3,10.5c5.6,1.2,9.7,6.2,9.7,12.1c0,6.9-5.5,12.4-12.4,12.4h-2.7c-1.2,0-2.2-0.9-2.3-2l0,0v-0.3
	v-2.3v-9.9c0-1.3,1.1-2.3,2.3-2.3c1.3,0,2.3,1.1,2.3,2.3v9.9h0.3c4.3,0,7.7-3.4,7.7-7.7c0-3.6-2.5-6.7-6-7.5l-3.2-0.7l-0.5-3.2
	C100,7.5,96.8,4.7,93,4.7s-7,2.8-7.6,6.5l-0.5,3.2l-3.2,0.7c-3.5,0.8-6,3.9-6,7.5c0,4.2,3.4,7.7,7.7,7.7h0.3v-9.9
	c0-1.3,1.1-2.3,2.3-2.3c1.3,0,2.3,1.1,2.3,2.3v9.9v2.3V33l0,0c-0.2,1.1-1.1,2-2.3,2h-2.7C76.5,35,71,29.5,71,22.6
	c0-5.9,4.2-10.9,9.7-12.1C81.7,4.6,86.8,0,93,0S104.3,4.6,105.3,10.5z"/>
</svg>
