<?xml version="1.0" encoding="utf-8"?>
<!-- Generator: Adobe Illustrator 25.2.0, SVG Export Plug-In . SVG Version: 6.00 Build 0)  -->
<svg version="1.1" id="Layer_1" xmlns="http://www.w3.org/2000/svg" xmlns:xlink="http://www.w3.org/1999/xlink" x="0px" y="0px"
	 viewBox="0 0 186 35" style="enable-background:new 0 0 186 35;" xml:space="preserve">
<style type="text/css">
	.st0{fill-rule:evenodd;clip-rule:evenodd;fill:#FFFFFF;}
	.st1{fill:#FFFFFF;}
</style>
<path class="st0" d="M24.9,15.4v17.3c0,1.3-1.1,2.3-2.3,2.3c-1.3,0-2.3-1.1-2.3-2.3V15.4c0-1.3,1.1-2.3,2.3-2.3
	C23.8,13,24.9,14.1,24.9,15.4z M34.8,10.5c5.6,1.2,9.7,6.2,9.7,12.1C44.5,29.5,39,35,32.1,35h-2.7c-1.2,0-2.2-0.9-2.3-2h0v-0.3v-2.3
	v-9.9c0-1.3,1.1-2.3,2.3-2.3c1.3,0,2.3,1.1,2.3,2.3v9.9h0.3c4.3,0,7.7-3.4,7.7-7.7c0-3.6-2.5-6.7-6-7.5l-3.2-0.7l-0.5-3.2
	c-0.6-3.7-3.8-6.5-7.6-6.5c-3.8,0-7,2.8-7.6,6.5l-0.5,3.2l-3.2,0.7c-3.5,0.8-6,3.9-6,7.5c0,4.2,3.4,7.7,7.7,7.7h0.3v-9.9
	c0-1.3,1.1-2.3,2.3-2.3c1.3,0,2.3,1.1,2.3,2.3v9.9v2.3V33h0c-0.2,1.1-1.1,2-2.3,2h-2.7C6.1,35,0.5,29.5,0.5,22.6
	c0-5.9,4.2-10.9,9.7-12.1C11.2,4.6,16.3,0,22.5,0C28.7,0,33.9,4.6,34.8,10.5z"/>
<g>
	<path class="st1" d="M60.3,18.4c0,4.3-2.6,7.9-7.8,7.9c-5.1,0-7.6-3.6-7.6-7.9c0-4.4,2.7-7.9,7.8-7.9
		C57.5,10.6,60.3,13.9,60.3,18.4z M49.5,18.4c0,2.8,0.9,4.7,3.1,4.7c2.3,0,3.1-2.1,3.1-4.6c0-2.8-0.8-4.7-3.1-4.7
		C50.4,13.8,49.5,15.6,49.5,18.4z"/>
	<path class="st1" d="M66.5,25.2v5h-4.3V17.6c0-1,0-2.3,0-3.1h4.2c0.1,0.3,0.1,1,0.1,1.3c0.5-0.7,1.4-1.6,3.2-1.6
		c2.4,0,4.5,2,4.5,5.8c0,4.3-2.4,6.3-5.1,6.3C67.7,26.3,66.9,25.8,66.5,25.2z M69.9,20.1c0-2.1-0.6-2.9-1.7-2.9
		c-1.3,0-1.8,0.9-1.8,3.1c0,2,0.4,3,1.7,3C69.3,23.3,69.9,22.4,69.9,20.1z"/>
	<path class="st1" d="M75.1,14.5h1.7v-3H81v3h2v2.9h-2v4.9c0,0.7,0.2,1,1.1,1c0.2,0,0.4,0,0.6,0v2.6c-0.7,0.2-1.8,0.3-2.5,0.3
		c-2.7,0-3.5-1.3-3.5-3.5v-5.3h-1.6V14.5z"/>
	<path class="st1" d="M84.6,10.1h4.3v3h-4.3V10.1z M84.6,14.5h4.3V26h-4.3V14.5z"/>
	<path class="st1" d="M91.4,17.6c0-1.1,0-2.2,0-3.2h4.1c0,0.3,0.1,0.8,0.1,1.2c0.6-0.8,1.6-1.5,3.2-1.5c1.7,0,2.6,0.9,2.9,1.6
		c0.7-0.8,1.6-1.6,3.5-1.6c2.1,0,3.7,1.4,3.7,4.3V26h-4.2v-7.1c0-0.9-0.3-1.6-1.2-1.6c-1,0-1.3,0.6-1.3,1.9V26h-4.2v-7.1
		c0-0.9-0.2-1.6-1.2-1.6c-1,0-1.3,0.5-1.3,2V26h-4.2V17.6z"/>
	<path class="st1" d="M122.1,22.6c0,1.3,0.1,3,0.1,3.4h-4c-0.1-0.2-0.2-0.8-0.2-1.1c-0.5,0.7-1.4,1.3-3.3,1.3c-2.6,0-4-1.6-4-3.7
		c0-2.7,2.2-3.9,5.7-3.9c0.4,0,1,0,1.4,0v-0.6c0-0.7-0.3-1.3-1.3-1.3c-1,0-1.2,0.4-1.3,1.2h-4c0.2-1.9,1.3-3.8,5.4-3.8
		c3.8,0,5.3,1.5,5.3,4.3V22.6z M117.9,20.9c-0.2,0-0.6,0-0.9,0c-1.5,0-2,0.5-2,1.4c0,0.7,0.4,1.2,1.3,1.2c1.5,0,1.7-1,1.7-2.2V20.9z
		"/>
	<path class="st1" d="M124.5,26V10.1h4.3V26H124.5z"/>
	<path class="st1" d="M139.5,14.2h-4.3v-3.3h13.1v3.3H144V26h-4.4V14.2z"/>
	<path class="st1" d="M151.8,21.1c0,1.2,0.4,2.3,1.7,2.3c1,0,1.3-0.4,1.5-1h4.2c-0.4,1.5-1.7,3.9-5.8,3.9c-4.4,0-6-2.9-6-5.9
		c0-3.5,1.8-6.1,6-6.1c4.5,0,5.8,3,5.8,5.9c0,0.4,0,0.7,0,1H151.8z M155.1,18.9c0-1.1-0.3-2-1.6-2c-1.1,0-1.6,0.8-1.7,2H155.1z"/>
	<path class="st1" d="M172.4,22c-0.3,2.1-1.7,4.3-5.7,4.3c-4.1,0-5.8-2.7-5.8-5.9c0-3.5,2.2-6.1,6-6.1c4.3,0,5.4,2.9,5.5,4.3h-4.1
		c-0.1-0.8-0.5-1.5-1.4-1.5c-1.1,0-1.6,1-1.6,3.1c0,2.4,0.6,3.2,1.6,3.2c0.9,0,1.3-0.7,1.4-1.4H172.4z"/>
	<path class="st1" d="M178.4,10.1v5.6c0.6-0.7,1.5-1.5,3.3-1.5c2.4,0,3.8,1.5,3.8,4.4V26h-4.3v-6.9c0-1.2-0.4-1.7-1.3-1.7
		c-1.3,0-1.5,1-1.5,2.4V26h-4.3V10.1H178.4z"/>
</g>
</svg>
